<svg id="logo-bdjur" xmlns="http://www.w3.org/2000/svg" width="277.68" height="56.451" viewBox="0 0 277.68 56.451">
  <g id="Grupo_1" data-name="Grupo 1" transform="translate(133.901)">
    <path id="Caminho_1" data-name="Caminho 1" d="M671.882,684.482h3.041a2.194,2.194,0,0,1,2.407,2.242,2.057,2.057,0,0,1-1.128,1.938v.025a2.167,2.167,0,0,1,1.5,2.2,2.456,2.456,0,0,1-2.673,2.5h-3.142Zm3.041,3.864a1.457,1.457,0,0,0,1.507-1.559,1.417,1.417,0,0,0-1.52-1.52h-2.154v3.08Zm.114,4.255a1.62,1.62,0,0,0,1.748-1.736,1.668,1.668,0,0,0-1.76-1.76h-2.268v3.5Z" transform="translate(-671.882 -639.596)" fill="#073c5e"/>
    <path id="Caminho_2" data-name="Caminho 2" d="M689.114,684.481h.9v1.076h-.9Zm.025,2.533H690v6.372h-.861Z" transform="translate(-681.458 -639.595)" fill="#073c5e"/>
    <path id="Caminho_3" data-name="Caminho 3" d="M695.789,684.481h.861v3.092c0,.29-.024.519-.024.519h.024a2.308,2.308,0,0,1,2.166-1.229c1.71,0,2.776,1.368,2.776,3.344,0,2.014-1.2,3.333-2.876,3.333a2.32,2.32,0,0,1-2.09-1.242H696.6a4.882,4.882,0,0,1,.026.52v.57h-.837Zm2.864,8.3c1.127,0,2.051-.95,2.051-2.572,0-1.558-.824-2.559-2.015-2.559-1.063,0-2.063.761-2.063,2.572,0,1.279.658,2.559,2.027,2.559" transform="translate(-685.168 -639.595)" fill="#073c5e"/>
    <path id="Caminho_4" data-name="Caminho 4" d="M712.451,684.481h.861v7.209c0,.836.38.962.71.962a1.943,1.943,0,0,0,.214-.013v.773a2.26,2.26,0,0,1-.317.024c-.532,0-1.468-.164-1.468-1.558Z" transform="translate(-694.427 -639.595)" fill="#073c5e"/>
    <path id="Caminho_5" data-name="Caminho 5" d="M719.583,684.481h.9v1.076h-.9Zm.026,2.533h.861v6.372h-.861Z" transform="translate(-698.391 -639.595)" fill="#073c5e"/>
    <path id="Caminho_6" data-name="Caminho 6" d="M728.572,689.843a3.338,3.338,0,1,1-3.368,3.305,3.3,3.3,0,0,1,3.368-3.305m0,5.9a2.515,2.515,0,0,0,2.484-2.6,2.484,2.484,0,1,0-4.967,0,2.514,2.514,0,0,0,2.483,2.6" transform="translate(-701.514 -642.575)" fill="#073c5e"/>
    <path id="Caminho_7" data-name="Caminho 7" d="M743.5,688.779h-.835v-.722h.849v-1.838h.849v1.838h1.6v.722h-1.6v3.166c0,1.495.949,1.685,1.431,1.685a1.53,1.53,0,0,0,.292-.024v.773a2.344,2.344,0,0,1-.367.024,2.069,2.069,0,0,1-2.218-2.368Z" transform="translate(-711.217 -640.561)" fill="#073c5e"/>
    <path id="Caminho_8" data-name="Caminho 8" d="M755.7,689.841a2.656,2.656,0,0,1,2.66,2.94c0,.151-.025.443-.025.443h-4.889a2.4,2.4,0,0,0,2.47,2.521,2.959,2.959,0,0,0,1.939-.773l.393.659a3.652,3.652,0,0,1-2.357.888,3.222,3.222,0,0,1-3.332-3.332,3.111,3.111,0,0,1,3.142-3.344m1.786,2.673a1.793,1.793,0,0,0-1.812-1.951,2.16,2.16,0,0,0-2.191,1.951Z" transform="translate(-716.718 -642.574)" fill="#073c5e"/>
    <path id="Caminho_9" data-name="Caminho 9" d="M771.682,689.841a3.137,3.137,0,0,1,2.331.912l-.444.646a2.693,2.693,0,0,0-1.862-.773,2.443,2.443,0,0,0-2.482,2.56,2.47,2.47,0,0,0,2.509,2.558,2.812,2.812,0,0,0,2.039-.9l.392.67a3.4,3.4,0,0,1-2.483,1,3.338,3.338,0,1,1,0-6.677" transform="translate(-725.485 -642.574)" fill="#073c5e"/>
    <path id="Caminho_10" data-name="Caminho 10" d="M787.732,692.425h.354v-.164a1.431,1.431,0,0,0-1.583-1.646,3.1,3.1,0,0,0-1.8.609l-.406-.66a3.666,3.666,0,0,1,2.268-.722,2.171,2.171,0,0,1,2.383,2.446v4.079h-.824v-.7a5.193,5.193,0,0,1,.025-.533h-.025A2.3,2.3,0,0,1,786,696.517a1.974,1.974,0,0,1-2.166-1.889c0-2.153,2.8-2.2,3.9-2.2m-1.6,3.357a2.221,2.221,0,0,0,1.95-2.369v-.278h-.367c-1,0-3,.038-3,1.443a1.266,1.266,0,0,0,1.419,1.2" transform="translate(-734.094 -642.573)" fill="#073c5e"/>
    <path id="Caminho_11" data-name="Caminho 11" d="M808.079,684.482h2.877a4.452,4.452,0,1,1,0,8.9h-2.877Zm2.787,8.12a3.667,3.667,0,0,0,0-7.335h-1.913V692.6Z" transform="translate(-747.57 -639.596)" fill="#073c5e"/>
    <path id="Caminho_12" data-name="Caminho 12" d="M828.566,684.481h.9v1.076h-.9Zm.023,2.533h.863v6.372h-.863Z" transform="translate(-758.955 -639.595)" fill="#073c5e"/>
    <path id="Caminho_13" data-name="Caminho 13" d="M836.92,698.253c1.242,0,2.23-.583,2.23-2v-.582a4.411,4.411,0,0,1,.025-.457h-.025a2.1,2.1,0,0,1-2.013,1.115c-1.711,0-2.839-1.355-2.839-3.269s1.051-3.218,2.763-3.218a2.1,2.1,0,0,1,2.1,1.065h.024a1.621,1.621,0,0,1-.011-.215v-.7h.836v6.22c0,2.028-1.5,2.812-3.052,2.812a4.686,4.686,0,0,1-2.091-.506l.33-.71a3.909,3.909,0,0,0,1.722.443m2.242-5.194c0-1.862-.886-2.432-2.014-2.432-1.241,0-1.964.9-1.964,2.42s.825,2.508,2.091,2.508c1,0,1.887-.62,1.887-2.5" transform="translate(-762.141 -642.574)" fill="#073c5e"/>
    <path id="Caminho_14" data-name="Caminho 14" d="M851.787,684.481h.9v1.076h-.9Zm.024,2.533h.861v6.372h-.861Z" transform="translate(-771.859 -639.595)" fill="#073c5e"/>
    <path id="Caminho_15" data-name="Caminho 15" d="M857.957,688.779h-.835v-.722h.849v-1.838h.849v1.838h1.6v.722h-1.6v3.166c0,1.495.949,1.685,1.43,1.685a1.545,1.545,0,0,0,.292-.024v.773a2.378,2.378,0,0,1-.368.024,2.069,2.069,0,0,1-2.218-2.368Z" transform="translate(-774.824 -640.561)" fill="#073c5e"/>
    <path id="Caminho_16" data-name="Caminho 16" d="M870.75,692.425h.355v-.164a1.431,1.431,0,0,0-1.584-1.646,3.1,3.1,0,0,0-1.8.609l-.407-.66a3.661,3.661,0,0,1,2.268-.722,2.171,2.171,0,0,1,2.381,2.446v4.079h-.823v-.7c0-.318.024-.533.024-.533h-.024a2.3,2.3,0,0,1-2.128,1.382,1.973,1.973,0,0,1-2.166-1.889c0-2.153,2.8-2.2,3.9-2.2m-1.6,3.357a2.222,2.222,0,0,0,1.951-2.369v-.278h-.366c-1,0-3,.038-3,1.443a1.266,1.266,0,0,0,1.419,1.2" transform="translate(-780.23 -642.573)" fill="#073c5e"/>
    <path id="Caminho_17" data-name="Caminho 17" d="M882.711,684.481h.862v7.209c0,.836.379.962.709.962a1.945,1.945,0,0,0,.214-.013v.773a2.256,2.256,0,0,1-.317.024c-.531,0-1.468-.164-1.468-1.558Z" transform="translate(-789.045 -639.595)" fill="#073c5e"/>
    <path id="Caminho_18" data-name="Caminho 18" d="M896.232,690.536h.874v.329c0,1.369.824,1.862,1.636,1.862.784,0,1.621-.456,1.621-1.836v-5.624h-2.179v-.786h3.054v6.41a2.506,2.506,0,1,1-5,0Z" transform="translate(-796.559 -639.595)" fill="#073c5e"/>
    <path id="Caminho_19" data-name="Caminho 19" d="M912.323,690.183h.861v3.827c0,1,.152,1.887,1.381,1.887a2.473,2.473,0,0,0,2.355-2.659v-3.054h.862v6.372h-.836v-.95c0-.279.024-.507.024-.507h-.024a2.725,2.725,0,0,1-2.5,1.61c-1.495,0-2.127-.812-2.127-2.471Z" transform="translate(-805.501 -642.764)" fill="#073c5e"/>
    <path id="Caminho_20" data-name="Caminho 20" d="M929.3,690.1h.849v1.127c0,.279-.025.507-.025.507h.025a2.174,2.174,0,0,1,2.015-1.7,1.685,1.685,0,0,1,.341.039v.849a2.1,2.1,0,0,0-.317-.026,2.042,2.042,0,0,0-1.849,1.647,4.2,4.2,0,0,0-.177,1.242v2.684H929.3Z" transform="translate(-814.932 -642.685)" fill="#073c5e"/>
    <path id="Caminho_21" data-name="Caminho 21" d="M939.454,687.014h.861v6.372h-.861Zm.9-2.533h1l-1.089,1.507h-.784Z" transform="translate(-820.578 -639.595)" fill="#073c5e"/>
    <path id="Caminho_22" data-name="Caminho 22" d="M947.995,686.864a2.248,2.248,0,0,1,2.077,1.2h.025a4.62,4.62,0,0,1-.025-.482v-3.1h.863v8.9H950.1v-.671a3.39,3.39,0,0,1,.027-.456H950.1a2.306,2.306,0,0,1-2.191,1.281c-1.71,0-2.774-1.369-2.774-3.345,0-2.014,1.19-3.331,2.863-3.331m.038,5.9c1.064,0,2.064-.76,2.064-2.571,0-1.291-.658-2.558-2.026-2.558-1.128,0-2.053.949-2.053,2.558,0,1.571.823,2.571,2.014,2.571" transform="translate(-823.733 -639.596)" fill="#073c5e"/>
    <path id="Caminho_23" data-name="Caminho 23" d="M962.818,684.481h.9v1.076h-.9Zm.024,2.533h.862v6.372h-.862Z" transform="translate(-833.562 -639.595)" fill="#073c5e"/>
    <path id="Caminho_24" data-name="Caminho 24" d="M971.84,689.841a3.138,3.138,0,0,1,2.332.912l-.445.646a2.693,2.693,0,0,0-1.862-.773,2.443,2.443,0,0,0-2.482,2.56,2.47,2.47,0,0,0,2.508,2.558,2.811,2.811,0,0,0,2.039-.9l.393.67a3.4,3.4,0,0,1-2.484,1,3.338,3.338,0,1,1,0-6.677" transform="translate(-836.717 -642.574)" fill="#073c5e"/>
    <path id="Caminho_25" data-name="Caminho 25" d="M987.888,692.425h.356v-.164a1.431,1.431,0,0,0-1.584-1.646,3.1,3.1,0,0,0-1.8.609l-.405-.66a3.659,3.659,0,0,1,2.268-.722,2.171,2.171,0,0,1,2.382,2.446v4.079h-.824v-.7a5.245,5.245,0,0,1,.024-.533h-.024a2.3,2.3,0,0,1-2.128,1.382,1.975,1.975,0,0,1-2.167-1.889c0-2.153,2.8-2.2,3.9-2.2m-1.6,3.357a2.222,2.222,0,0,0,1.951-2.369v-.278h-.367c-1,0-3,.038-3,1.443a1.266,1.266,0,0,0,1.419,1.2" transform="translate(-845.326 -642.573)" fill="#073c5e"/>
    <path id="Caminho_26" data-name="Caminho 26" d="M671.882,583.45h12.929c6.515,0,11.146,3.36,11.146,9.315a8.554,8.554,0,0,1-4.377,7.737v.1c3.97,1.171,5.854,4.835,5.854,8.5,0,7.228-5.8,10.485-12.47,10.485H671.882Zm12.929,14.762a4.314,4.314,0,0,0,4.479-4.632c0-2.6-1.527-4.48-4.581-4.48h-6.261v9.112Zm.661,15.727a5.217,5.217,0,1,0,0-10.435h-7.025v10.435Z" transform="translate(-671.882 -583.45)" fill="#073c5e"/>
    <path id="Caminho_27" data-name="Caminho 27" d="M745.429,583.45h12.318c11.146,0,18.425,6.617,18.425,18.019s-7.279,18.12-18.425,18.12H745.429Zm11.961,30.489c7.33,0,12.011-4.327,12.011-12.47,0-8.042-4.784-12.369-12.011-12.369h-5.4v24.839Z" transform="translate(-712.754 -583.45)" fill="#073c5e"/>
    <path id="Caminho_28" data-name="Caminho 28" d="M822.524,606.814h6.515v1.68c0,4.276,2.342,5.7,4.785,5.7s4.633-1.476,4.633-5.395V589.1h-9.315v-5.65h15.879V608.9c0,7.889-5.7,11.3-11.3,11.3-5.547,0-11.2-3.512-11.2-11.3Z" transform="translate(-755.597 -583.451)" fill="#073c5e"/>
    <path id="Caminho_29" data-name="Caminho 29" d="M889.655,606.365h6.464v15.371c0,3.157.813,5.295,4.021,5.295,4.683,0,7.278-4.123,7.278-8.754V606.365h6.464v25.958h-6.209v-2.952a16.321,16.321,0,0,1,.1-1.832h-.1a10.006,10.006,0,0,1-9.008,5.4c-5.55,0-9.01-2.8-9.01-9.875Z" transform="translate(-792.904 -596.184)" fill="#073c5e"/>
    <path id="Caminho_30" data-name="Caminho 30" d="M960.222,605.918h6.209V610.4a17.907,17.907,0,0,1-.1,1.832h.1c1.172-3.715,4.275-6.669,8.246-6.669a7.352,7.352,0,0,1,1.172.1v6.363a11.214,11.214,0,0,0-1.527-.1,7.347,7.347,0,0,0-7.075,5.445,13.884,13.884,0,0,0-.561,4.225v10.282h-6.464Z" transform="translate(-832.119 -595.737)" fill="#073c5e"/>
  </g>
  <g id="Grupo_3" data-name="Grupo 3">
    <path id="Caminho_31" data-name="Caminho 31" d="M491.259,616.551a5.4,5.4,0,0,0-7.365-1.976L438,640.966a7.174,7.174,0,0,0-.315-1.051l43.563-29.857-5.927-1.009-37.884,30.288a7.324,7.324,0,0,0-.472-.843l32.207-32.207-5.666-.25L436.532,637.9a7.28,7.28,0,0,0-11.311,0l-26.973-31.864-5.666.25,32.207,32.207a7.248,7.248,0,0,0-.472.843l-37.884-30.288-5.926,1.009,43.563,29.857a7.2,7.2,0,0,0-.313,1.043l-45.861-26.433a5.4,5.4,0,0,0-7.342,1.925l-.06.1,55.378,31.9a10.028,10.028,0,0,0,10.012,0l55.377-31.9Z" transform="translate(-370.492 -596.002)" fill="#168383"/>
    <g id="Grupo_2" data-name="Grupo 2" transform="translate(41.786)">
      <path id="Caminho_32" data-name="Caminho 32" d="M494.773,648.742h0a5.487,5.487,0,0,1,7.759,0h0l2.32-3.72h0a8.767,8.767,0,0,0-12.4,0h0Z" transform="translate(-480.054 -616.24)" fill="#093c5e"/>
      <path id="Caminho_33" data-name="Caminho 33" d="M480.9,621.808h0a14.14,14.14,0,0,1,20,0h0l2.4-3.72h0a17.535,17.535,0,0,0-24.8,0h0Z" transform="translate(-472.3 -599.845)" fill="#093c5e"/>
      <path id="Caminho_34" data-name="Caminho 34" d="M499.636,594.734h0a23.323,23.323,0,0,0-32.985,0h0l-2.105-3.58h0a26.3,26.3,0,0,1,37.2,0h0l-2.106,3.58" transform="translate(-464.545 -583.45)" fill="#093c5e"/>
    </g>
  </g>
</svg>
